<svg width="32" height="47" viewBox="0 0 32 47" fill="none" xmlns="http://www.w3.org/2000/svg">
<path d="M8.5 0C3.81752 0 0 3.81752 0 8.5C0 11.8003 1.94993 14.5929 4.70898 16C1.94993 17.4071 0 20.1997 0 23.5C0 26.8003 1.94993 29.5929 4.70898 31C1.94993 32.4071 0 35.1997 0 38.5C0 43.1825 3.81752 47 8.5 47C13.1825 47 17 43.1825 17 38.5V31V27.6562C18.3414 30.2017 20.9321 32 24 32C28.4064 32 32 28.4064 32 24C32 20.3782 29.5262 17.4287 26.2148 16.4492C29.5536 15.3017 32 12.2202 32 8.5C32 3.81752 28.1825 0 23.5 0H16H8.5ZM8.5 2H15V15H8.5C4.89848 15 2 12.1015 2 8.5C2 4.89848 4.89848 2 8.5 2ZM17 2H23.5C27.1015 2 30 4.89848 30 8.5C30 12.1015 27.1015 15 23.5 15H17V2ZM8.5 17H15V30H8.5C4.89848 30 2 27.1015 2 23.5C2 19.8985 4.89848 17 8.5 17ZM17 17H20.3438C18.9088 17.7561 17.7561 18.9088 17 20.3438V17ZM24 18C27.3256 18 30 20.6744 30 24C30 27.3256 27.3256 30 24 30C20.6744 30 18 27.3256 18 24C18 20.6744 20.6744 18 24 18ZM8.5 32H15V38.5C15 42.1015 12.1015 45 8.5 45C4.89848 45 2 42.1015 2 38.5C2 34.8985 4.89848 32 8.5 32Z" fill="#FFB400"/>
</svg>
