<svg width="46" height="46" viewBox="0 0 46 46" fill="none" xmlns="http://www.w3.org/2000/svg">
<path d="M23 0C10.3113 0 0 10.3113 0 23C0 35.6887 10.3113 46 23 46C35.6887 46 46 35.6887 46 23C46 10.3113 35.6887 0 23 0ZM23 2C34.6073 2 44 11.3927 44 23C44 34.6073 34.6073 44 23 44C11.3927 44 2 34.6073 2 23C2 11.3927 11.3927 2 23 2ZM23 4C12.5133 4 4 12.5133 4 23C4 33.4867 12.5133 42 23 42C33.4867 42 42 33.4867 42 23C42 12.5133 33.4867 4 23 4ZM23 6C26.9725 6 30.6117 7.36595 33.502 9.63867C32.9963 10.2585 32.6992 11.0532 32.6992 11.9004C32.6992 13.5004 33.5996 14.9 34.5996 16.5C35.3996 17.8 36.1992 19.5004 36.1992 21.9004C36.1992 23.6004 35.6992 25.7008 34.6992 28.3008L32.6992 34.9004L25.5996 13.6992C26.7996 13.5992 27.9004 13.5 27.9004 13.5C28.9004 13.4 28.8008 11.9004 27.8008 11.9004H27.6992C27.6992 11.9004 24.5004 12.1992 22.4004 12.1992C20.5004 12.1992 17.1992 11.9004 17.1992 11.9004H17.0996C16.0996 11.9004 16 13.5 17 13.5C17 13.5 17.9996 13.5992 19.0996 13.6992L22.1992 22.0996L17.9004 35L10.6992 13.5996C11.8992 13.4996 13 13.4004 13 13.4004C14 13.3004 13.9004 11.8008 12.9004 11.8008H12.8008C12.8008 11.8008 11.4894 11.9085 10.0449 11.9961C13.1602 8.32987 17.7982 6 23 6ZM35.0879 11.041C36.4487 12.4165 37.5633 14.029 38.3926 15.8047C38.3714 16.9364 38.1833 18.0675 37.9004 19.1992C37.5004 17.7992 37.0004 16.5996 36.4004 15.5996L36.1992 15.1992C35.3992 13.8992 34.8008 12.9 34.8008 12C34.8008 11.6574 34.9001 11.3193 35.0879 11.041ZM21.5996 14.0996H22.5996C22.9996 14.1996 23.3008 14.1992 23.8008 14.1992L23.9004 14.4004L31 35.5996L31.6973 37.5957C31.3158 37.8231 30.9255 38.0349 30.5254 38.2324L25.1992 24L24.5 22.0996L24.3008 21.4004L21.5996 14.0996ZM8.4668 14.1992H8.90039L9 14.4004L16.1992 35.8008L16.8008 37.5996L16.457 38.6973C16.1821 38.5829 15.9197 38.4465 15.6523 38.3184L7.51758 15.9941C7.79791 15.3739 8.11692 14.7768 8.4668 14.1992ZM39.5859 19.2949C39.8503 20.4884 40 21.7255 40 23C40 28.2592 37.6232 32.9472 33.8867 36.0625L38.5996 22.4004C39.0369 21.2876 39.3524 20.2614 39.5859 19.2949ZM6.36719 19.4727L12.5801 36.4238C8.57935 33.3169 6 28.472 6 23C6 21.7897 6.12814 20.6106 6.36719 19.4727ZM23 24.5996L28.3418 39.1348C26.6614 39.6888 24.8689 40 23 40C21.2586 40 19.5804 39.7356 18 39.252L23 24.5996Z" fill="url(#paint0_linear_233_549)" fill-opacity="0.9"/>
<defs>
<linearGradient id="paint0_linear_233_549" x1="23" y1="0" x2="23" y2="46" gradientUnits="userSpaceOnUse">
<stop stop-color="#007CF0"/>
<stop offset="1" stop-color="#00DFD8"/>
</linearGradient>
</defs>
</svg>
